<?xml version="1.0" encoding="utf-8" ?>
<svg baseProfile="full" height="300mm" version="1.1" viewBox="0,0,200,300" width="200mm" xmlns="http://www.w3.org/2000/svg" xmlns:ev="http://www.w3.org/2001/xml-events" xmlns:xlink="http://www.w3.org/1999/xlink"><defs /><rect fill="#222222" height="300" width="200" x="0" y="0" /><text fill="#FFFFFF" style="font-size:12px; font-family:Arial; font-weight:bold;" x="10" y="20">Over 10km Runs</text><text fill="#FFFFFF" style="font-size:4px; font-family:Arial" x="10" y="280">ATHLETE</text><text fill="#FFFFFF" style="font-size:9px; font-family:Arial" x="10" y="290">Oakwen</text><text fill="#FFFFFF" style="font-size:4px; font-family:Arial" x="120" y="280">STATISTICS</text><text fill="#FFFFFF" style="font-size:3px; font-family:Arial" x="120" y="285">Number: 2</text><text fill="#FFFFFF" style="font-size:3px; font-family:Arial" x="120" y="290">Weekly: 2.0</text><text fill="#FFFFFF" style="font-size:3px; font-family:Arial" x="141" y="285">Total: 10.3 km</text><text fill="#FFFFFF" style="font-size:3px; font-family:Arial" x="141" y="290">Avg: 5.2 km</text><text fill="#FFFFFF" style="font-size:3px; font-family:Arial" x="167" y="285">Min: 5.1 km</text><text fill="#FFFFFF" style="font-size:3px; font-family:Arial" x="167" y="290">Max: 5.2 km</text><polyline fill="none" points="121.08854348026216,38.704884422710165 121.6224306570366,57.638997161760926 112.54634865373373,89.32434903015383 86.74180177785456,93.57479390362278 79.97923087421805,102.46206544246525 78.91145652066916,125.8393096474465 72.68277279194444,133.56727837747894 79.26738130487502,135.3060682003852 86.56383938714862,141.48842266597785 96.52973335143179,144.0 115.3937469292432,135.1128693879582 115.03782214410603,128.35090198530816 107.02951449342072,124.10051354090683 118.59706998895854,120.23651806195267 127.13926481734961,106.90568990446627 123.5800169724971,91.44957232894376 118.59706998895854,88.93794460874051 105.07192817889154,93.18839010945521 95.81788378302008,91.25637028226629 87.63161373976618,95.70001375419088 82.29274197295308,104.20087591256015 78.37756934389472,124.29371316567995 73.75054714549333,131.63528833235614 86.20791460108012,141.68162100785412 94.39418464433402,143.8068018287886 113.97004779055715,134.14687511348166 113.61412300728261,128.35090198530816 107.56340167019516,123.90731390262954 120.55465630441904,118.69091827399097 127.13926481734961,105.55328325764276 121.97835544217378,96.85922385472804 122.15631783381104,90.29035983444192 119.13095716573298,88.35833786986768 102.58045468758792,92.02917838399298 95.81788378302008,89.90395555575378 85.31810264103115,95.70001375419088 80.3351556584239,102.46206544246525 78.55553173553199,120.81611774698831 71.97092322260141,132.60128353349864 94.39418464433402,143.61360364384018 114.32597257569432,135.1128693879582 115.21578453667462,130.47609362122603 106.67358970921487,124.68011237122118 109.34302559308708,121.78211693745106 121.08854348026216,121.20251746592112 126.60537764057517,108.06489504640922 121.08854348026216,90.67676405608654 115.92763410601765,89.1311468265485 87.09772656299174,94.1543994883541 80.69108044262975,102.07566295936704 78.55553173553199,121.00931761367247 71.97092322260141,132.79448253056034 86.91976417135447,142.26121594849974 97.59750770498067,143.8068018287886 109.69895037729293,140.32923231530003 115.57170932088047,134.72647172072902 114.68189735990018,128.93049987521954 107.02951449342072,124.4869127755519 120.7326186960563,119.07731830654666 126.42741524800658,109.9969024755992 128.0290767783299,102.65526666305959 123.04612979572266,96.47282054484822 123.22409218735993,91.25637028226629 95.63992139138281,86.2331120625604 86.74180177785456,88.16513559478335 85.85198981780559,91.44957232894376 103.11434186436236,91.25637028226629 112.90227343793958,84.68749221111648 122.69020501058549,45.66028868127614 121.08854348026216,36.0" stroke="#4dd2ff" stroke-linecap="round" stroke-linejoin="round" stroke-width="0.5"><title>2021-01-17 5.2km</title></polyline><polyline fill="none" points="119.18038070388138,156.0 120.46519089397043,166.3618108702358 112.20569681096822,206.41382145415992 103.76265841629356,209.60201568622142 87.97784750163555,210.5983256122563 79.71835341863334,216.1776544067543 77.69936597533524,243.47634703922085 72.19303658697754,251.24745727702975 87.42721456289291,260.81186996237375 96.6044302098453,263.202967842808 115.50949444435537,256.42818501777947 117.1613932615146,249.85264426469803 108.90189917758107,243.2770875080023 112.02215249836445,239.49115363066085 122.48417833726853,237.29929475020617 128.90822929050773,226.33997367485426 124.31962146610022,210.5983256122563 118.26265913899988,208.00791904050857 96.7879745233804,208.80496748141013 84.12341692950577,213.7865149055142 79.35126479249448,220.36214344087057 78.61708754021674,241.48375106975436 70.90822639595717,251.44671622035094 87.06012593675405,261.4096446307376 95.87025295943022,263.202967842808 114.59177288040519,255.431891992921 116.2436716966331,249.25486703938805 110.18670936860144,245.07042275601998 110.92088662087917,242.6793088275008 123.40189990215003,235.5059543440584 128.90822929050773,223.35106021142565 123.95253284089267,209.20349161326885 116.61076032277197,206.81234593945555 104.86392429284751,210.39906365633942 95.87025295943022,208.20718117291108 85.40822711959481,212.79020615573972 79.90189773123711,222.554016062757 76.78164441138506,243.6756065550726 70.90822639595717,249.25486703938805 87.24367024935782,261.4096446307376 94.40189845487475,263.6014839508571 101.3765823468566,263.202967842808 114.95886150561273,256.0296678522136 116.79430463630706,250.45042135822587 109.6360764298588,245.2696821547579 108.90189917758107,240.88597199250944 122.85126696247607,236.30299467151053 129.0917736031115,225.3436695546843 124.68671009223908,210.9968494796194 119.73101364262402,208.20718117291108 96.23734158463776,208.6057053930126 83.7563283033669,214.7828232885804 78.2499989150092,227.73479882627726 76.04746715910733,245.4689415388275 71.09177070949227,251.0481983195059 73.84493540413678,255.03337468020618 97.33860746212304,264.0 116.61076032277197,254.83411600231193 116.2436716966331,248.25857136934064 109.08544349111617,241.68301073275506 123.03481127601117,237.10003476403654 128.90822929050773,226.7384952204302 123.95253284089267,207.60939473216422 118.81329207867384,206.01529691088945 102.47784822527319,210.5983256122563 93.66772120352834,209.40275365742855 83.939872616902,213.5872531849891 78.2499989150092,223.5503212120384 80.45253066997975,236.10373461199924 78.61708754021674,239.29189380584285 73.29430246539414,215.5798697299324" stroke="#4dd2ff" stroke-linecap="round" stroke-linejoin="round" stroke-width="0.5"><title>2021-01-14 5.1km</title></polyline></svg>